<svg xmlns="http://www.w3.org/2000/svg" viewBox="0 0 512 512" width="512" height="512">
  <!-- Green rounded background -->
  <rect width="512" height="512" rx="115" fill="#1a3d24"/>
  <!-- Outer glow ring -->
  <rect width="512" height="512" rx="115" fill="url(#glow)" opacity="0.3"/>
  <!-- Barcode lines -->
  <rect x="100" y="160" width="18" height="192" rx="4" fill="#34c759"/>
  <rect x="132" y="160" width="10" height="192" rx="4" fill="#34c759"/>
  <rect x="156" y="160" width="22" height="192" rx="4" fill="#34c759"/>
  <rect x="192" y="160" width="8" height="192" rx="4" fill="#34c759"/>
  <rect x="214" y="160" width="16" height="192" rx="4" fill="#34c759"/>
  <rect x="244" y="160" width="24" height="192" rx="4" fill="#34c759"/>
  <rect x="282" y="160" width="10" height="192" rx="4" fill="#34c759"/>
  <rect x="306" y="160" width="20" height="192" rx="4" fill="#34c759"/>
  <rect x="340" y="160" width="8" height="192" rx="4" fill="#34c759"/>
  <rect x="362" y="160" width="18" height="192" rx="4" fill="#34c759"/>
  <rect x="394" y="160" width="12" height="192" rx="4" fill="#34c759"/>
  <!-- Scan line -->
  <rect x="80" y="248" width="352" height="4" rx="2" fill="#34c759" opacity="0.9"/>
  <!-- Corner brackets -->
  <path d="M80 130 L80 100 L110 100" stroke="#34c759" stroke-width="12" fill="none" stroke-linecap="round" stroke-linejoin="round"/>
  <path d="M402 100 L432 100 L432 130" stroke="#34c759" stroke-width="12" fill="none" stroke-linecap="round" stroke-linejoin="round"/>
  <path d="M80 382 L80 412 L110 412" stroke="#34c759" stroke-width="12" fill="none" stroke-linecap="round" stroke-linejoin="round"/>
  <path d="M402 412 L432 412 L432 382" stroke="#34c759" stroke-width="12" fill="none" stroke-linecap="round" stroke-linejoin="round"/>
  <defs>
    <radialGradient id="glow" cx="50%" cy="30%" r="60%">
      <stop offset="0%" stop-color="#34c759"/>
      <stop offset="100%" stop-color="#1a3d24"/>
    </radialGradient>
  </defs>
</svg>
